Coordinates
version=1
nRows=16
nColumns=22
inDegrees=yes

Units are S.I. units (second, meters, Newtons, ...)
If the header above contains a line with 'inDegrees', this indicates whether rotational values are in degrees (yes) or radians (no).

endheader
time	pelvis_tilt	pelvis_list	pelvis_rotation	pelvis_tx	pelvis_ty	pelvis_tz	hip_flexion_r	hip_adduction_r	hip_rotation_r	knee_angle_r	ankle_angle_r	subtalar_angle_r	hip_flexion_l	hip_adduction_l	hip_rotation_l	knee_angle_l	ankle_angle_l	subtalar_angle_l	lumbar_extension	lumbar_bending	lumbar_rotation
      3.07000000	     -2.18928556	     -1.47809514	      6.80324632	      0.09568058	      0.99872597	      0.30675012	      6.89639466	      2.31094923	     -4.88213662	    -26.89648848	     17.14006956	     -2.95454344	     29.17351204	     -6.46196231	    -13.27618811	    -25.96238054	      6.34770284	      8.50987676	     -6.03345858	     -4.21514684	     -1.19776657
      3.08000000	     -2.09322932	     -1.35668718	      6.96272321	      0.08852676	      1.00106836	      0.30781540	      7.02799193	      2.22618861	     -4.95954758	    -26.47708822	     16.48259804	     -2.93574399	     29.12142987	     -6.51763605	    -13.16260503	    -27.91084866	      6.26446769	      8.25337805	     -5.99663903	     -4.39081814	     -1.09725629
      3.09000000	     -2.03539803	     -1.23597291	      7.07757105	      0.08141934	      1.00330451	      0.30880783	      7.18015930	      2.12519718	     -5.01924590	    -26.02941122	     15.81859812	     -2.86714595	     29.09024229	     -6.56906889	    -12.89745769	    -29.95312040	      6.22102080	      8.02840735	     -5.91677739	     -4.55853090	     -0.94549516
      3.10000000	     -2.01573678	     -1.13171239	      7.15207481	      0.07434581	      1.00538256	      0.30972953	      7.36455170	      2.02354828	     -5.08155277	    -25.56908250	     15.17009989	     -2.76443392	     29.09066947	     -6.62699955	    -12.49410276	    -32.09214208	      6.21976310	      7.82418304	     -5.79272666	     -4.70189205	     -0.75177387
      3.11000000	     -2.02178636	     -1.03624660	      7.18223605	      0.06728486	      1.00729589	      0.31057277	      7.57982187	      1.91419154	     -5.14099047	    -25.11690030	     14.53329152	     -2.62879271	     29.10280231	     -6.68233030	    -11.98271119	    -34.30986210	      6.25225380	      7.66203356	     -5.64609317	     -4.82663749	     -0.52133266
      3.12000000	     -2.03619542	     -0.94834147	      7.16812077	      0.06021231	      1.00904641	      0.31132502	      7.81686168	      1.80084984	     -5.18005331	    -24.68790746	     13.90960040	     -2.46824466	     29.10334418	     -6.73298193	    -11.39188988	    -36.58810781	      6.31045637	      7.54685736	     -5.50110133	     -4.92476296	     -0.27031112
      3.13000000	     -2.05518615	     -0.87271021	      7.11200192	      0.05312827	      1.01061511	      0.31200020	      8.07994327	      1.69089022	     -5.20267575	    -24.29624494	     13.31722144	     -2.29121691	     29.08331132	     -6.78764661	    -10.75692596	    -38.90916394	      6.39056625	      7.46913375	     -5.36045367	     -4.99590912	     -0.00535542
      3.14000000	     -2.07283647	     -0.80516010	      7.01513523	      0.04603684	      1.01200203	      0.31260011	      8.36730881	      1.58279857	     -5.20321473	    -23.95148973	     12.75931738	     -2.10196842	     29.02404011	     -6.84648033	    -10.11520390	    -41.24569332	      6.48540962	      7.42075217	     -5.23049594	     -5.04392730	      0.26841894
      3.15000000	     -2.08241234	     -0.74394755	      6.87816157	      0.03893962	      1.01321527	      0.31314024	      8.67630502	      1.47813431	     -5.17450272	    -23.66182272	     12.23509676	     -1.90545958	     28.90479796	     -6.91354086	     -9.49385360	    -43.56566239	      6.58471864	      7.38673195	     -5.11864754	     -5.07320301	      0.53872518
      3.16000000	     -2.08421665	     -0.69746201	      6.71585040	      0.03185651	      1.01424838	      0.31359139	      9.00610406	      1.38720471	     -5.11032778	    -23.42705441	     11.74084124	     -1.70313352	     28.72029495	     -6.99739107	     -8.91210076	    -45.84605824	      6.67966957	      7.34899995	     -5.01646688	     -5.06834823	      0.79494879
      3.17000000	     -2.08124483	     -0.66430235	      6.52968451	      0.02478814	      1.01510385	      0.31399326	      9.36092141	      1.31095835	     -5.01999590	    -23.24709511	     11.28042648	     -1.49968690	     28.46148746	     -7.10300174	     -8.38558315	    -48.05345626	      6.75972243	      7.29155047	     -4.92349382	     -5.04212267	      1.02656131
      3.18000000	     -2.07124059	     -0.64243985	      6.33355113	      0.01774763	      1.01579423	      0.31433108	      9.73369889	      1.24853540	     -4.90132304	    -23.11657453	     10.85831310	     -1.30484298	     28.11693400	     -7.22539179	     -7.91426556	    -50.15756380	      6.81510500	      7.20093791	     -4.83764884	     -4.99590904	      1.22138825
      3.19000000	     -2.05928428	     -0.63805564	      6.13693816	      0.01073195	      1.01632440	      0.31459900	     10.12552713	      1.20554421	     -4.76803604	    -23.02475474	     10.46620178	     -1.11897481	     27.68868826	     -7.36784924	     -7.49207193	    -52.13296948	      6.84031269	      7.07154703	     -4.75203394	     -4.92443091	      1.37017036
      3.20000000	     -2.05011261	     -0.65185450	      5.95236384	      0.00374303	      1.01669554	      0.31477797	     10.53903490	      1.18037291	     -4.63205980	    -22.97046507	     10.11659410	     -0.93954497	     27.17984206	     -7.52392353	     -7.10639789	    -53.95882701	      6.83653845	      6.89994774	     -4.65959935	     -4.82794348	      1.46174651
      3.21000000	     -2.04891103	     -0.68813053	      5.78195727	     -0.00324138	      1.01692055	      0.31487282	     10.97553147	      1.17679513	     -4.50317803	    -22.94120410	      9.80327851	     -0.75547912	     26.59458428	     -7.69187639	     -6.74143177	    -55.61112773	      6.80465950	      6.68625241	     -4.55795897	     -4.70247561	      1.48832145
      3.22000000	     -2.04943104	     -0.73348575	      5.63528694	     -0.01021051	      1.01703290	      0.31485714	     11.42345979	      1.17831489	     -4.39048066	    -22.93428550	      9.51665272	     -0.57224682	     25.92143462	     -7.85114819	     -6.39095125	    -57.06896134	      6.74075919	      6.48157126	     -4.45168422	     -4.56296723	      1.45671377
